<svg xmlns="http://www.w3.org/2000/svg" width="40.535" height="42.307"><path d="M29.595 32.307c-3.23-.44-17.55-.66-19.35-2.62-1.81-1.97 7.1-7.66 8.52-9.19m10.83 11.81c-3.23-.44-17.55-.66-19.35-2.62-1.81-1.97 7.1-7.66 8.52-9.19M30.535 10c-3.28.38-17.88.6-19.68 2.3-1.81 1.69 7.38 6.56 8.85 7.87M30.535 10c-3.28.38-17.88.6-19.68 2.3-1.81 1.69 7.38 6.56 8.85 7.87" stroke="#f08c00" stroke-width="4" fill="none" stroke-linecap="round"/><path d="M12.368 24.428c.94.89 2.74 6.83 5.63 5.37 2.88-1.47 9.73-11.78 11.68-14.14m-17.31 8.77c.94.89 2.74 6.83 5.63 5.37 2.88-1.47 9.73-11.78 11.68-14.14" stroke="#2f9e44" stroke-width="4" fill="none" stroke-linecap="round"/></svg>
